<?xml version="1.0" encoding="UTF-8" standalone="no"?>
<!DOCTYPE svg PUBLIC "-//W3C//DTD SVG 1.1//EN" "http://www.w3.org/Graphics/SVG/1.1/DTD/svg11.dtd">
<svg xmlns="http://www.w3.org/2000/svg" version="1.1" viewBox="0 0 512 512">
<path fill="#000000" d="
  M 249.06 0.00
  L 262.81 0.00
  Q 327.14 2.13 381.19 32.81
  Q 454.95 74.69 489.98 152.38
  Q 494.17 161.66 497.40 170.93
  Q 510.80 209.35 512.00 250.31
  L 512.00 262.56
  Q 509.96 327.12 479.44 380.94
  Q 449.27 434.12 399.94 467.69
  Q 338.18 509.70 261.94 512.00
  L 249.69 512.00
  Q 192.11 510.21 142.81 485.69
  Q 68.46 448.70 28.81 373.94
  Q 1.93 323.24 0.00 262.94
  L 0.00 249.19
  Q 2.76 171.18 46.91 108.40
  Q 52.67 100.20 59.08 92.52
  Q 100.30 43.08 159.56 18.81
  Q 201.73 1.55 249.06 0.00
  Z
  M 486.30 255.96
  A 230.33 230.33 0.0 0 0 255.97 25.63
  A 230.33 230.33 0.0 0 0 25.64 255.96
  A 230.33 230.33 0.0 0 0 255.97 486.29
  A 230.33 230.33 0.0 0 0 486.30 255.96
  Z"
/>
<path fill="#000000" d="
  M 299.95 255.32
  Q 255.65 216.80 211.56 178.05
  Q 207.26 174.28 206.09 171.89
  Q 204.12 167.88 205.25 163.25
  Q 206.70 157.31 212.81 154.56
  Q 217.24 152.57 221.72 154.27
  Q 224.15 155.19 228.64 159.10
  Q 274.92 199.44 321.06 239.94
  Q 324.76 243.18 327.22 245.46
  Q 330.86 248.84 331.98 252.01
  Q 334.79 259.96 327.56 266.31
  Q 279.04 308.91 230.45 351.42
  Q 224.88 356.30 221.78 357.48
  Q 215.59 359.84 210.48 356.00
  Q 205.54 352.29 205.00 346.52
  Q 204.41 340.28 210.06 335.31
  Q 255.11 295.73 299.95 256.51
  A 0.79 0.79 45.2 0 0 299.95 255.32
  Z"
/>
</svg>
