<?xml version="1.0" encoding="UTF-8" standalone="no"?>
<!DOCTYPE svg PUBLIC "-//W3C//DTD SVG 1.1//EN" "http://www.w3.org/Graphics/SVG/1.1/DTD/svg11.dtd">
<svg xmlns="http://www.w3.org/2000/svg" version="1.1" viewBox="0 0 512 512">
<path fill="#000000" d="
  M 257.67 262.92
  Q 300.64 306.11 344.19 349.56
  Q 346.88 352.25 347.89 353.82
  Q 350.63 358.11 349.37 362.27
  Q 348.25 366.00 344.53 368.41
  Q 340.03 371.33 335.20 369.07
  Q 332.86 367.98 328.48 363.61
  Q 285.88 321.01 242.93 278.05
  A 1.05 1.05 0.0 0 0 241.45 278.05
  Q 199.06 320.23 157.23 362.14
  Q 151.33 368.05 149.83 368.85
  Q 146.27 370.74 142.17 369.46
  Q 138.59 368.35 136.35 365.21
  Q 133.00 360.50 135.41 355.43
  Q 136.52 353.11 141.15 348.48
  Q 183.68 305.95 226.37 263.26
  A 1.26 1.25 45.2 0 0 226.37 261.49
  Q 182.19 217.31 138.56 173.69
  Q 135.59 170.71 134.77 167.31
  Q 133.94 163.83 135.73 160.39
  Q 137.65 156.69 141.56 155.31
  Q 146.21 153.68 150.11 156.00
  Q 151.36 156.74 156.03 161.41
  Q 198.62 203.99 241.46 246.83
  A 0.94 0.93 44.8 0 0 242.79 246.83
  Q 286.44 203.19 329.44 160.19
  Q 332.24 157.38 334.04 156.36
  Q 338.56 153.80 342.65 155.36
  Q 346.40 156.79 348.55 160.58
  Q 350.72 164.37 349.19 168.58
  Q 348.29 171.09 344.75 174.62
  Q 301.86 217.51 257.67 261.71
  A 0.86 0.85 45.2 0 0 257.67 262.92
  Z"
/>
</svg>
